<?xml version="1.0" encoding="UTF-8"?>
<svg id="Layer_2" data-name="Layer 2" xmlns="http://www.w3.org/2000/svg" viewBox="0 0 430.09 555.35">
  <defs>
    <style>
      .cls-1 {
        fill: #fff;
      }
    </style>
  </defs>
  <g id="Layer_1-2" data-name="Layer 1">
    <g>
      <path class="cls-1" d="M215.04,130.27c-65.14,0-121.99,36.21-151.45,89.56H215.04s151.43,0,151.43,0c-29.46-53.35-86.28-89.56-151.43-89.56Z"/>
      <path class="cls-1" d="M424.09,173.16l-107.6-126.31c-53.21-62.47-149.7-62.47-202.91,0L5.98,173.16c-1.51,1.77-2.76,3.64-3.75,5.56-10.75,20.84,20.19,37.36,32.19,17.21,36.66-61.55,103.91-102.88,180.61-102.88s144.03,41.39,180.67,103.01c11.98,20.15,42.81,3.7,32.2-17.2-1-1.97-2.27-3.89-3.82-5.7Z"/>
    </g>
    <path class="cls-1" d="M387.92,301.12c0,4-.13,7.98-.41,11.91-6.14,89.8-81.13,160.97-172.45,160.97S48.72,402.83,42.58,313.03c-.28-3.93-.41-7.91-.41-11.91,0-30.18,7.78-58.58,21.44-83.31,29.46-53.35,86.3-89.56,151.45-89.56s121.97,36.21,151.43,89.56c13.66,24.73,21.44,53.12,21.44,83.31Z"/>
    <path class="cls-1" d="M427.09,400.38c0-6.98-5.67-12.64-12.66-12.64-5.21,0-9.68,3.15-11.62,7.65,.02-.04,.03-.08,.04-.11,0,0-.02,0-.02-.01-34.57,68.71-105.76,115.96-187.77,115.96S61.53,463.77,27.04,394.82c0,0-.01,0-.02,0,.03,.06,.05,.13,.08,.2-2.02-4.3-6.38-7.28-11.45-7.28-6.99,0-12.65,5.66-12.66,12.64,0,0,0,0,0-.01v73.85c0,44.81,36.34,81.13,81.15,81.13H345.96c44.81,0,81.13-36.32,81.13-81.13v-73.85s0,0,0,.01Zm-398.77,0c0-.05,0-.1,0-.15,0,.05,0,.09,0,.14,0,0,0,0,0,.01Zm-.83-4.46c.05,.12,.09,.24,.13,.37-.04-.12-.09-.25-.13-.37Zm.41,1.27c.04,.14,.08,.29,.11,.43-.03-.15-.07-.29-.11-.43Zm.27,1.33c.02,.16,.05,.31,.07,.47-.02-.16-.05-.31-.07-.47Zm373.63,1.42c0,.15-.02,.29-.02,.44,0,0,0,0,0-.01,0-.14,.02-.28,.02-.43Zm.79-3.98c-.07,.2-.15,.39-.22,.59,.06-.2,.14-.39,.22-.59Zm-.39,1.22c-.05,.2-.11,.4-.16,.61,.04-.21,.1-.4,.16-.61Zm-.26,1.23c-.03,.22-.08,.43-.1,.66,.02-.22,.07-.44,.1-.66Z"/>
  </g>
</svg>