<?xml version="1.0" encoding="UTF-8"?>
<svg id="Layer_2" data-name="Layer 2" xmlns="http://www.w3.org/2000/svg" viewBox="0 0 145.28 40.46">
  <defs>
    <style>
      .cls-1 {
        fill: rgb(16, 199, 255);
      }
    </style>
  </defs>
  <g id="Layer_1-2" data-name="Layer 1">
    <g>
      <g>
        <path class="cls-1" d="M1.64,24.56c-1.74-1.71-2.18-4.43-.91-6.64,1.51-2.62,4.86-3.52,7.48-2.02l24.92,14.34c2.62,1.51,3.52,4.86,2.02,7.48s-4.86,3.52-7.48,2.02L2.75,25.4c-.41-.24-.78-.52-1.11-.84Z"/>
        <path class="cls-1" d="M1.56,16.49c-1.71,1.74-2.09,4.48-.77,6.66,1.56,2.59,4.93,3.42,7.52,1.86l24.62-14.84c2.59-1.56,3.42-4.93,1.86-7.52s-4.93-3.42-7.52-1.86L2.65,15.63c-.41,.25-.77,.54-1.09,.86Z"/>
      </g>
      <rect class="cls-1" x="13.92" y="16.65" width="131.36" height="7.56" rx="3.78" ry="3.78" transform="translate(.08 -.29) rotate(.21)"/>
    </g>
  </g>
</svg> 