<?xml version="1.0" encoding="UTF-8"?>
<svg id="Layer_2" data-name="Layer 2" xmlns="http://www.w3.org/2000/svg" viewBox="0 0 99.74 102.34">
  <defs>
    <style>
      .cls-1 {
        fill: rgba(16, 199, 255,.7);
      }
    </style>
  </defs>
  <g id="Layer_1-2" data-name="Layer 1">
    <g>
      <path class="cls-1" d="M85.77,86.98c-9.53,9.9-22.32,15.36-36.02,15.36C23.95,102.34,2.57,83,.02,57.35c-.11-1.11,.26-2.23,1.01-3.06,.76-.83,1.84-1.31,2.97-1.31,2.06,0,3.76,1.54,3.97,3.59,2.15,21.54,20.11,37.78,41.78,37.78,11.51,0,22.26-4.58,30.26-12.9,8-8.31,12.16-19.23,11.71-30.76-.84-21.6-18.41-39.3-40.01-40.29-13.51-.62-26.16,5.09-34.67,15.65-.76,.93-1.88,1.47-3.09,1.47-1.56,0-2.94-.87-3.61-2.28-.67-1.39-.48-3,.48-4.2C20.52,9,34.95,2.18,50.35,2.38c26.64,.31,48.31,21.4,49.35,47.99,.53,13.72-4.42,26.72-13.93,36.61Z"/>
      <g>
        <path class="cls-1" d="M9.27,34.85c-3.02,0-5.48-2.45-5.48-5.48V5.48C3.8,2.45,6.25,0,9.27,0s5.48,2.45,5.48,5.48V29.37c0,3.02-2.45,5.48-5.48,5.48Z"/>
        <path class="cls-1" d="M9.27,36.24c-2.44,0-4.66-1.64-5.3-4.11-.76-2.93,1-5.92,3.93-6.67l27.83-7.2c2.93-.75,5.92,1,6.67,3.93s-1,5.92-3.93,6.67l-27.83,7.2c-.46,.12-.92,.18-1.38,.18Z"/>
      </g>
    </g>
  </g>
</svg>